# xmcd
#
# Track frame offsets: 
#        150
#        14380
#        30068
#        48485
#        66758
#        81515
#        96958
#        116248
#        133120
#        150425
#
# Disc length: 2190 seconds
#
# Revision: 0
# Processed by: cddbd v1.5.2PL0 Copyright (c) Steve Scherf et al.
# Submitted via: ExactAudioCopy v0.95b4
#
DISCID=7c088c0a
DTITLE=Steve Wariner - Greatest Hits
DYEAR=1987
DGENRE=Country
TTITLE0=What I Didn't Do
TTITLE1=Heart Trouble
TTITLE2=Some Fools Never Learn
TTITLE3=You Can Dream Of Me
TTITLE4=Life's Highway
TTITLE5=That's How You Know When Love's Right (Duet with Nicolette Lar
TTITLE5=son)
TTITLE6=Starting Over Again
TTITLE7=Small Town Girl
TTITLE8=The Weekend
TTITLE9=Lynda
EXTD=
EXTT0=
EXTT1=
EXTT2=
EXTT3=
EXTT4=
EXTT5=
EXTT6=
EXTT7=
EXTT8=
EXTT9=
PLAYORDER=
